<?xml version="1.0" standalone="no"?>
<!DOCTYPE svg PUBLIC "-//W3C//DTD SVG 20010904//EN"
 "http://www.w3.org/TR/2001/REC-SVG-20010904/DTD/svg10.dtd">
<svg version="1.0" xmlns="http://www.w3.org/2000/svg"
 width="1280.000000pt" height="640.000000pt" viewBox="0 0 1280.000000 640.000000"
 preserveAspectRatio="xMidYMid meet">
<g transform="translate(0.000000,640.000000) scale(0.100000,-0.100000)"
fill="#000000" stroke="none">
<path d="M6865 6393 c-22 -3 -45 -9 -52 -15 -18 -15 -16 -74 3 -103 12 -18 13
-28 5 -44 -12 -22 -20 -25 -211 -76 -374 -102 -484 -177 -386 -263 60 -53 183
-87 406 -114 144 -17 685 -17 810 0 123 18 239 46 289 71 77 40 104 108 59
152 -47 45 -204 104 -438 166 -167 43 -195 65 -155 117 17 22 19 64 6 85 -16
25 -198 38 -336 24z m-121 -238 c5 -13 43 -15 260 -15 224 0 256 2 264 16 8
15 23 12 143 -21 225 -62 389 -136 389 -176 0 -29 -181 -68 -420 -90 -171 -15
-601 -15 -744 0 -211 23 -414 70 -423 98 -11 32 155 105 382 168 140 39 141
40 149 20z"/>
<path d="M1241 6347 c-13 -6 -33 -24 -44 -39 -19 -26 -20 -33 -9 -170 30 -369
49 -1417 26 -1425 -6 -2 -35 -18 -65 -36 -78 -46 -132 -130 -147 -228 -43
-272 -58 -542 -32 -574 56 -68 328 -94 515 -49 44 10 68 23 89 46 l29 32 -6
130 c-10 215 -44 452 -73 513 -29 60 -109 136 -161 154 l-36 12 6 481 c7 500
19 830 38 977 12 103 -1 148 -50 173 -36 19 -48 20 -80 3z m106 -44 c14 -21
15 -41 4 -171 -24 -305 -50 -1270 -37 -1374 7 -57 8 -58 54 -78 114 -50 156
-125 182 -323 26 -198 41 -385 33 -430 -13 -80 -77 -101 -303 -102 -130 0
-177 4 -222 18 -86 26 -92 40 -85 195 9 188 45 450 67 497 31 65 77 112 135
141 40 19 57 34 62 52 8 35 -4 885 -17 1147 -6 116 -15 248 -21 295 -12 101
-4 131 42 159 38 23 81 13 106 -26z"/>
<path d="M1237 6292 c-22 -24 -21 -55 1 -75 37 -33 92 -11 92 37 0 48 -62 73
-93 38z m80 -28 c8 -20 -31 -59 -51 -51 -8 3 -20 15 -26 26 -8 17 -7 24 10 41
17 17 24 18 41 10 11 -6 23 -18 26 -26z"/>
<path d="M1108 4433 c-11 -13 -21 -75 -37 -228 -21 -209 -21 -210 -1 -229 18
-19 21 -19 36 -4 12 12 20 65 34 229 18 204 18 215 1 232 -17 17 -18 17 -33 0z
m17 -230 c-9 -114 -21 -212 -26 -217 -6 -6 -13 -6 -21 2 -8 8 -7 58 7 204 19
205 28 249 47 230 8 -8 6 -67 -7 -219z"/>
<path d="M1188 4433 c-13 -14 -19 -68 -29 -246 l-12 -228 21 -22 c20 -20 23
-20 38 -5 14 14 18 56 27 252 8 186 7 239 -3 251 -16 19 -23 19 -42 -2z m35
-16 c8 -21 -15 -461 -24 -472 -6 -6 -14 -4 -23 5 -12 13 -13 47 -2 236 7 122
16 226 20 233 9 15 23 14 29 -2z"/>
<path d="M1267 4432 c-15 -16 -17 -49 -17 -254 0 -130 3 -243 6 -252 8 -20 48
-21 64 -1 18 22 10 486 -9 509 -17 20 -24 20 -44 -2z m41 -252 c2 -242 0 -259
-30 -260 -10 0 -11 494 -1 504 23 23 28 -14 31 -244z"/>
<path d="M1350 4435 c-10 -13 -11 -63 -2 -252 12 -256 18 -278 61 -251 25 16
26 42 10 303 -9 133 -16 185 -27 198 -19 21 -26 21 -42 2z m35 -15 c4 -6 13
-110 21 -232 13 -197 13 -223 0 -237 -9 -8 -19 -11 -23 -7 -10 9 -34 443 -27
469 6 19 19 22 29 7z"/>
<path d="M1436 4434 c-13 -13 -16 -27 -11 -68 3 -28 12 -125 21 -216 16 -183
27 -211 65 -174 l20 21 -21 209 c-17 165 -26 213 -40 227 -16 17 -18 18 -34 1z
m55 -204 c22 -202 22 -245 -1 -245 -12 0 -18 38 -34 207 -10 114 -15 215 -12
224 15 39 28 -12 47 -186z"/>
<path d="M11719 6269 c-220 -32 -433 -131 -520 -240 -57 -73 -60 -95 -49 -332
13 -251 18 -267 119 -367 75 -74 165 -125 286 -163 208 -65 517 -72 740 -16
178 44 321 140 385 261 33 62 34 64 47 280 l14 218 -25 55 c-64 141 -272 257
-539 300 -99 16 -361 19 -458 4z m561 -307 c144 -26 261 -63 322 -101 81 -52
88 -90 26 -148 -148 -136 -449 -215 -763 -200 -294 14 -517 82 -631 191 l-46
45 18 31 c55 93 241 171 474 200 128 15 469 5 600 -18z m226 -647 c-3 -8 -12
-15 -19 -15 -11 0 -16 21 -20 88 -4 73 -2 89 12 100 14 12 17 5 25 -72 4 -47
6 -92 2 -101z m-56 71 c0 -57 -8 -70 -53 -81 -26 -7 -27 -6 -27 33 0 22 3 54
6 71 6 27 10 31 40 31 l34 0 0 -54z m-220 -2 c0 -11 6 -15 20 -11 11 3 23 1
26 -4 3 -5 17 0 31 11 47 37 60 26 47 -40 -7 -30 -9 -32 -40 -27 -19 3 -34 2
-34 -4 0 -5 -9 -9 -20 -9 -13 0 -24 -10 -30 -25 -11 -28 -31 -32 -63 -10 -20
13 -28 12 -76 -10 -61 -29 -84 -31 -101 -10 -16 19 -6 57 23 90 23 27 45 32
102 20 23 -5 36 0 59 20 33 29 56 32 56 9z"/>
<path d="M12081 5329 c-85 -17 -91 -49 -8 -48 64 0 122 19 122 39 0 18 -50 22
-114 9z m84 -18 c-33 -13 -115 -21 -115 -12 0 12 31 18 90 19 32 1 39 -2 25
-7z"/>
<path d="M2113 6170 c-58 -35 -61 -52 -44 -250 18 -213 31 -568 38 -1051 l6
-447 -58 -12 c-84 -17 -138 -43 -189 -90 -78 -72 -83 -143 -20 -269 39 -78
102 -142 172 -174 68 -31 236 -31 303 0 55 25 120 81 150 129 27 44 59 149 59
193 0 94 -104 180 -254 211 l-56 11 0 207 c0 412 30 1232 50 1373 12 87 -2
134 -49 166 -41 28 -66 29 -108 3z m114 -24 c33 -29 34 -49 15 -311 -16 -220
-31 -697 -34 -1097 l-3 -318 -37 0 -38 0 0 118 c0 387 -32 1276 -51 1439 -13
105 -8 135 26 169 32 32 84 32 122 0z m-276 -2130 c82 -38 192 -52 290 -38 85
12 186 52 215 83 31 34 35 20 10 -30 -54 -105 -162 -164 -301 -164 -125 0
-223 52 -287 152 -34 54 -36 72 -5 43 12 -11 47 -32 78 -46z"/>
<path d="M2113 6104 c-15 -23 -15 -29 -2 -52 21 -38 43 -48 73 -34 65 29 51
112 -19 112 -26 0 -39 -6 -52 -26z m85 4 c28 -28 7 -78 -33 -78 -27 0 -45 18
-45 45 0 27 18 45 45 45 12 0 26 -5 33 -12z"/>
<path d="M2944 6171 c-53 -32 -59 -63 -46 -230 22 -270 34 -653 36 -1106 l1
-450 -52 -7 c-111 -16 -214 -71 -269 -144 -25 -33 -29 -46 -29 -105 0 -60 3
-71 31 -106 78 -98 206 -148 379 -147 193 0 344 67 402 178 21 40 21 112 0
152 -40 76 -147 144 -263 165 -32 7 -65 13 -71 15 -10 3 -13 55 -13 221 0 430
30 1243 51 1394 13 91 -1 137 -53 169 -41 25 -64 25 -104 1z m118 -32 c30 -30
31 -31 24 -107 -25 -306 -44 -822 -48 -1329 l-2 -313 -38 0 -38 0 0 133 c0
415 -31 1294 -51 1460 -12 103 -8 130 28 163 38 35 86 32 125 -7z m-182 -1817
c0 -13 -12 -22 -22 -16 -10 6 -1 24 13 24 5 0 9 -4 9 -8z m130 0 c0 -13 -12
-22 -22 -16 -10 6 -1 24 13 24 5 0 9 -4 9 -8z m140 -1 c0 -6 -4 -13 -10 -16
-5 -3 -10 1 -10 9 0 9 5 16 10 16 6 0 10 -4 10 -9z m-146 -72 c-3 -5 -10 -7
-15 -3 -5 3 -7 10 -3 15 3 5 10 7 15 3 5 -3 7 -10 3 -15z m-249 -9 c3 -5 -1
-10 -9 -10 -9 0 -16 5 -16 10 0 6 4 10 9 10 6 0 13 -4 16 -10z m525 0 c0 -5
-4 -10 -10 -10 -5 0 -10 5 -10 10 0 6 5 10 10 10 6 0 10 -4 10 -10z m-439 -23
c-13 -13 -26 -3 -16 12 3 6 11 8 17 5 6 -4 6 -10 -1 -17z m329 8 c0 -8 -4 -15
-10 -15 -5 0 -10 7 -10 15 0 8 5 15 10 15 6 0 10 -7 10 -15z m-250 -5 c0 -5
-4 -10 -10 -10 -5 0 -10 5 -10 10 0 6 5 10 10 10 6 0 10 -4 10 -10z m180 0 c0
-5 -7 -10 -15 -10 -8 0 -15 5 -15 10 0 6 7 10 15 10 8 0 15 -4 15 -10z m-90
-28 c0 -13 -12 -22 -22 -16 -10 6 -1 24 13 24 5 0 9 -4 9 -8z m-50 -32 c0 -5
-7 -10 -16 -10 -8 0 -12 5 -9 10 3 6 10 10 16 10 5 0 9 -4 9 -10z m100 0 c0
-5 -7 -10 -15 -10 -8 0 -15 5 -15 10 0 6 7 10 15 10 8 0 15 -4 15 -10z m-350
-30 c0 -5 -4 -10 -10 -10 -5 0 -10 5 -10 10 0 6 5 10 10 10 6 0 10 -4 10 -10z
m170 0 c0 -5 -4 -10 -10 -10 -5 0 -10 5 -10 10 0 6 5 10 10 10 6 0 10 -4 10
-10z m130 0 c0 -5 -7 -10 -15 -10 -8 0 -15 5 -15 10 0 6 7 10 15 10 8 0 15 -4
15 -10z m120 0 c0 -5 -4 -10 -10 -10 -5 0 -10 5 -10 10 0 6 5 10 10 10 6 0 10
-4 10 -10z m170 0 c0 -5 -4 -10 -10 -10 -5 0 -10 5 -10 10 0 6 5 10 10 10 6 0
10 -4 10 -10z m-340 -30 c0 -5 -4 -10 -9 -10 -6 0 -13 5 -16 10 -3 6 1 10 9
10 9 0 16 -4 16 -10z m100 0 c0 -5 -7 -10 -15 -10 -8 0 -15 5 -15 10 0 6 7 10
15 10 8 0 15 -4 15 -10z m-53 -36 c-9 -9 -28 6 -21 18 4 6 10 6 17 -1 6 -6 8
-13 4 -17z m93 -25 c0 -5 -7 -9 -15 -9 -15 0 -20 12 -9 23 8 8 24 -1 24 -14z
m-259 -2 c-1 -12 -15 -9 -19 4 -3 6 1 10 8 8 6 -3 11 -8 11 -12z m79 3 c0 -5
-4 -10 -10 -10 -5 0 -10 5 -10 10 0 6 5 10 10 10 6 0 10 -4 10 -10z m250 -5
c0 -8 -4 -15 -10 -15 -5 0 -10 7 -10 15 0 8 5 15 10 15 6 0 10 -7 10 -15z
m-426 -36 c-3 -5 -10 -7 -15 -3 -5 3 -7 10 -3 15 3 5 10 7 15 3 5 -3 7 -10 3
-15z m260 0 c-3 -5 -10 -7 -15 -3 -5 3 -7 10 -3 15 3 5 10 7 15 3 5 -3 7 -10
3 -15z m256 6 c0 -8 -4 -15 -10 -15 -5 0 -10 7 -10 15 0 8 5 15 10 15 6 0 10
-7 10 -15z m-383 -71 c-9 -9 -28 6 -21 18 4 6 10 6 17 -1 6 -6 8 -13 4 -17z
m130 0 c-9 -9 -28 6 -21 18 4 6 10 6 17 -1 6 -6 8 -13 4 -17z m129 -1 c-10
-10 -19 5 -10 18 6 11 8 11 12 0 2 -7 1 -15 -2 -18z"/>
<path d="M2943 6104 c-15 -23 -15 -29 -2 -52 21 -38 43 -48 73 -34 65 29 51
112 -19 112 -26 0 -39 -6 -52 -26z m85 4 c7 -7 12 -21 12 -33 0 -12 -5 -26
-12 -33 -7 -7 -21 -12 -33 -12 -12 0 -26 5 -33 12 -7 7 -12 21 -12 33 0 12 5
26 12 33 7 7 21 12 33 12 12 0 26 -5 33 -12z"/>
<path d="M3761 6168 c-38 -21 -65 -64 -65 -106 0 -20 6 -93 12 -162 17 -187
34 -697 35 -1088 2 -345 2 -347 -22 -399 -13 -29 -29 -53 -35 -53 -7 0 -27 13
-46 30 -64 54 -86 30 -46 -49 14 -28 26 -55 26 -61 0 -15 -27 -12 -62 6 -28
14 -32 14 -47 0 -15 -15 -13 -20 27 -57 23 -22 42 -46 42 -54 0 -13 -30 -25
-67 -25 -27 0 -39 -18 -24 -33 7 -7 30 -17 53 -22 23 -6 43 -15 45 -20 1 -6
-13 -20 -32 -33 -37 -24 -40 -29 -25 -52 7 -12 16 -12 52 -3 23 6 46 9 50 7 4
-3 -1 -23 -12 -44 -25 -49 -25 -57 1 -65 15 -5 29 1 50 21 34 32 44 26 44 -24
0 -32 3 -37 26 -40 21 -2 29 3 39 27 7 17 16 31 20 31 4 0 13 -14 20 -31 10
-24 18 -29 39 -27 23 3 26 8 27 42 0 49 13 54 44 21 27 -28 42 -31 59 -11 10
11 8 23 -8 55 -12 22 -17 42 -12 45 5 3 27 -1 50 -9 39 -13 41 -13 52 7 10 18
8 25 -11 40 -13 10 -30 23 -38 27 -22 12 -7 28 35 36 78 14 86 49 13 59 -62 8
-63 22 -9 70 30 27 38 42 34 56 -7 24 -23 25 -49 5 -23 -17 -66 -20 -66 -5 0
6 11 32 25 58 14 26 25 53 25 60 0 26 -30 23 -69 -9 -49 -39 -61 -33 -91 47
-17 48 -20 78 -20 232 0 376 32 1218 51 1339 10 69 -1 113 -38 145 -26 24 -73
31 -102 16z m74 -14 c53 -25 60 -55 46 -202 -13 -147 -31 -514 -31 -649 l0
-93 -50 0 -50 0 0 88 c0 126 -18 496 -31 649 -14 151 -7 182 44 207 39 19 33
19 72 0z m-25 -1934 c0 -39 1 -40 35 -40 24 0 35 -5 35 -15 0 -10 -11 -15 -35
-15 -34 0 -35 -1 -35 -40 0 -29 -4 -40 -15 -40 -11 0 -15 11 -15 40 0 38 -2
40 -30 40 -20 0 -30 5 -30 15 0 10 10 15 30 15 28 0 30 2 30 40 0 29 4 40 15
40 11 0 15 -11 15 -40z"/>
<path d="M3760 6110 c-11 -11 -20 -29 -20 -40 0 -26 34 -60 60 -60 21 0 60 33
60 51 0 15 -21 53 -34 61 -19 13 -45 9 -66 -12z m75 -39 c0 -44 -33 -59 -67
-32 -20 17 -21 22 -10 45 10 23 18 27 45 24 29 -3 32 -6 32 -37z"/>
<path d="M10708 6126 c-172 -31 -386 -110 -571 -212 l-117 -65 -83 41 c-182
90 -428 125 -817 117 -164 -3 -292 -11 -359 -22 -356 -56 -555 -165 -508 -277
8 -18 24 -42 36 -52 12 -11 38 -47 58 -80 40 -68 95 -139 133 -174 173 -157
850 -203 1212 -81 84 28 149 78 249 195 152 177 188 209 290 257 151 72 400
147 639 191 172 33 220 56 220 105 0 55 -27 65 -173 68 -77 1 -164 -4 -209
-11z m330 -13 c27 -6 44 -35 36 -58 -11 -27 -59 -45 -207 -75 -361 -73 -633
-165 -754 -256 -17 -13 -33 -24 -35 -24 -2 0 -3 17 -3 38 -1 23 -10 50 -22 67
l-21 29 56 34 c209 126 484 226 690 251 73 9 211 6 260 -6z m-1478 -138 c146
-21 284 -57 363 -94 78 -37 137 -98 137 -141 0 -38 -53 -98 -113 -130 l-44
-23 -89 36 c-347 139 -710 166 -1074 79 -93 -22 -214 -64 -272 -93 l-37 -19
-58 30 c-66 35 -113 81 -113 111 0 128 286 227 765 263 99 8 427 -4 535 -19z
m425 -386 c-164 -195 -196 -220 -347 -259 -217 -57 -387 -71 -613 -50 -236 22
-417 57 -481 95 -51 30 -129 116 -167 184 l-28 50 57 -25 c175 -77 443 -117
789 -117 335 -1 578 38 732 116 87 43 90 44 58 6z"/>
<path d="M10874 6099 c-65 -18 -70 -61 -9 -78 49 -13 109 5 113 35 5 37 -48
59 -104 43z m81 -22 c17 -13 17 -15 -6 -30 -37 -27 -109 -20 -109 9 0 30 82
44 115 21z"/>
<path d="M4599 6110 c-213 -28 -318 -61 -353 -112 -36 -51 -6 -93 108 -150 44
-22 104 -62 133 -88 108 -99 206 -125 468 -124 260 0 377 30 479 124 25 23 76
56 114 75 90 43 142 89 142 124 0 55 -86 107 -215 130 -239 43 -637 53 -876
21z m718 -15 c228 -25 317 -55 353 -118 14 -25 13 -28 -14 -56 -89 -93 -283
-138 -632 -148 -316 -9 -513 16 -654 83 -92 43 -120 68 -120 106 0 23 9 34 46
58 64 40 218 71 474 94 87 8 407 -3 547 -19z"/>
<path d="M4785 6019 c-106 -10 -235 -41 -279 -67 -39 -23 -41 -57 -6 -84 14
-10 71 -28 125 -40 85 -19 134 -22 330 -22 241 -1 332 9 433 46 240 89 -185
207 -603 167z m485 -34 c88 -19 164 -53 168 -76 11 -60 -334 -110 -615 -90
-80 6 -175 18 -212 26 -68 16 -131 47 -131 65 0 26 103 65 230 85 115 19 456
13 560 -10z"/>
<path d="M358 6081 l-33 -30 1 -248 c1 -136 8 -318 15 -403 24 -280 23 -282
-129 -473 -55 -69 -112 -146 -126 -169 -37 -64 -54 -144 -66 -316 -5 -84 -13
-190 -16 -236 -4 -46 -4 -96 0 -111 l7 -28 23 22 c26 24 36 27 36 7 0 -17 22
-26 62 -26 20 0 39 9 58 30 36 39 51 38 48 -2 l-3 -33 55 0 c53 0 55 1 65 33
13 46 45 45 45 -3 0 -31 3 -35 36 -41 51 -9 84 8 84 46 0 40 22 39 41 -2 15
-35 47 -46 96 -33 20 5 24 11 20 31 -6 36 11 40 42 10 33 -31 97 -37 108 -9 8
20 -34 499 -49 563 -17 69 -39 107 -153 260 -59 78 -115 158 -126 179 -26 51
-40 129 -24 139 13 8 30 246 42 577 5 171 4 195 -12 228 -18 39 -58 67 -94 67
-12 0 -35 -13 -53 -29z m112 -9 c16 -16 32 -46 36 -67 10 -56 -26 -748 -40
-757 -16 -11 -94 -10 -101 1 -8 14 -35 508 -35 655 l0 128 34 34 c41 41 69 43
106 6z m-40 -884 c0 -54 50 -144 165 -298 59 -80 116 -163 126 -185 21 -48 34
-141 54 -385 16 -203 13 -224 -31 -177 -22 23 -33 28 -67 25 -39 -3 -42 -5
-45 -35 -4 -40 -29 -44 -38 -8 -17 67 -124 57 -124 -12 0 -37 -24 -23 -30 18
-5 33 -7 34 -53 37 -46 3 -48 2 -62 -32 -19 -46 -47 -50 -38 -6 4 23 2 30 -9
30 -9 0 -29 3 -46 6 -26 5 -36 1 -62 -27 l-30 -33 -16 22 c-10 14 -26 22 -44
22 -16 0 -31 3 -33 8 -5 9 8 227 23 382 14 148 29 180 165 350 115 145 151
207 161 283 8 55 34 67 34 15z"/>
<path d="M392 5578 c-19 -19 -14 -46 9 -59 18 -9 25 -7 43 10 16 17 18 25 10
39 -14 21 -45 27 -62 10z m45 -9 c16 -16 5 -39 -17 -39 -23 0 -34 16 -26 35 6
18 28 19 43 4z"/>
<path d="M392 5448 c-23 -23 -7 -68 24 -68 14 0 44 27 44 40 0 13 -30 40 -44
40 -6 0 -17 -5 -24 -12z m46 -22 c6 -29 -15 -43 -35 -24 -14 14 -14 20 -3 33
16 19 34 15 38 -9z"/>
<path d="M6770 5690 c-232 -16 -441 -57 -525 -103 -27 -15 -47 -36 -60 -64
-11 -23 -27 -42 -35 -43 -8 0 -84 16 -169 35 -144 33 -156 34 -173 18 -11 -10
-18 -30 -18 -52 0 -30 9 -44 63 -96 34 -33 101 -84 148 -113 77 -46 92 -52
143 -52 l56 0 1 -47 c0 -27 4 -100 8 -164 6 -102 11 -124 38 -180 97 -196 175
-219 748 -219 576 0 644 20 746 220 31 62 33 72 40 215 4 83 8 156 8 163 1 8
20 12 59 12 51 0 66 5 132 46 114 70 170 114 201 157 35 48 37 76 6 105 l-22
21 -125 -29 c-69 -15 -146 -31 -172 -35 -47 -7 -48 -7 -48 20 0 106 -279 177
-740 189 -102 2 -241 1 -310 -4z m-480 -240 c100 -50 157 -65 328 -86 187 -22
579 -22 765 0 155 19 303 53 366 85 48 25 54 14 11 -22 -29 -25 -30 -28 -30
-116 0 -86 1 -91 21 -91 20 0 21 -3 17 -152 -3 -143 -5 -157 -32 -215 -15 -34
-36 -68 -45 -76 -18 -17 -248 -52 -436 -67 -156 -13 -379 -13 -541 0 -135 10
-394 47 -411 59 -18 12 -51 77 -67 130 -11 38 -16 95 -16 187 0 130 0 133 23
136 21 3 22 8 25 88 l3 85 -36 33 c-30 29 -46 62 -30 62 3 0 41 -18 85 -40z
m-280 10 c13 -9 13 -10 0 -10 -8 0 -22 5 -30 10 -13 9 -13 10 0 10 8 0 22 -5
30 -10z m2005 0 c-11 -5 -27 -9 -35 -9 -13 -1 -13 0 0 9 8 5 24 9 35 9 l20 0
-20 -9z"/>
<path d="M4745 5564 c-142 -15 -334 -47 -380 -65 -103 -38 -139 -91 -100 -146
19 -27 103 -74 190 -106 39 -14 91 -35 118 -47 87 -39 187 -52 402 -53 228 0
341 16 440 62 33 15 81 35 106 45 65 23 149 76 173 109 20 27 20 28 2 61 -33
62 -120 93 -336 121 -119 16 -527 28 -615 19z m566 -29 c136 -14 267 -39 304
-57 36 -19 75 -61 75 -83 0 -41 -109 -112 -214 -139 -168 -44 -491 -65 -705
-47 -189 17 -284 37 -378 81 -132 62 -161 105 -103 154 40 33 133 61 270 82
245 35 466 38 751 9z"/>
<path d="M4865 5464 c-92 -7 -249 -36 -301 -55 -180 -68 -52 -146 274 -168
298 -20 607 25 628 92 20 64 -164 120 -426 130 -69 2 -147 3 -175 1z m403 -38
c90 -18 160 -45 180 -69 11 -12 9 -18 -13 -35 -82 -65 -518 -92 -766 -48 -89
16 -169 49 -169 69 0 33 99 70 250 93 113 17 407 12 518 -10z"/>
<path d="M9533 5128 c-13 -6 -32 -31 -44 -55 -20 -42 -21 -55 -18 -315 l4
-272 -155 -28 c-85 -15 -179 -33 -207 -39 l-53 -10 0 -785 0 -784 500 0 500 0
0 785 c0 432 -1 785 -2 786 -2 0 -93 17 -203 38 l-200 37 0 280 c0 302 -3 320
-57 358 -26 18 -34 19 -65 4z m75 -64 c47 -33 16 -124 -43 -124 -30 0 -75 41
-75 68 0 11 9 31 21 46 24 30 63 34 97 10z"/>
<path d="M11295 5009 c-329 -25 -601 -153 -684 -321 -35 -69 -39 -132 -21
-308 14 -130 31 -191 89 -318 65 -143 109 -215 168 -281 83 -94 104 -111 142
-117 27 -4 40 -13 51 -36 20 -39 73 -68 125 -68 23 0 46 -5 53 -12 7 -7 36
-12 70 -11 31 0 78 -6 104 -14 56 -18 104 -12 142 18 23 18 30 19 61 8 30 -11
40 -10 72 5 21 10 54 20 74 21 53 4 96 30 124 75 14 22 29 40 33 40 22 0 98
81 153 163 77 113 124 212 143 297 8 36 26 116 40 177 18 74 27 146 28 210 2
88 0 103 -24 149 -113 217 -520 357 -943 323z m427 -39 c190 -40 325 -101 420
-188 137 -127 144 -273 19 -401 -54 -56 -147 -112 -251 -152 -73 -29 -285 -78
-293 -69 -3 3 -12 106 -21 230 -16 216 -18 226 -42 247 -59 54 -201 56 -263 5
-19 -15 -25 -43 -47 -227 -32 -277 -27 -257 -72 -250 -260 44 -484 166 -552
301 -52 104 -19 229 83 319 104 92 320 177 519 204 116 16 386 5 500 -19z
m-302 -450 c42 0 80 7 106 19 l41 19 15 -197 c9 -108 14 -199 11 -203 -6 -11
-335 -10 -351 1 -11 7 -10 41 8 192 12 101 24 189 25 196 3 8 15 6 42 -8 26
-13 57 -19 103 -19z m-709 -431 c16 -11 71 -40 122 -64 408 -190 870 -175
1249 41 42 24 79 44 82 44 17 0 -81 -201 -105 -216 -8 -4 -9 6 -4 35 4 24 3
41 -3 41 -5 0 -12 -27 -15 -60 -4 -34 -12 -70 -18 -81 -18 -34 -81 -99 -110
-115 l-28 -14 5 33 c2 17 8 58 13 90 4 32 4 60 0 63 -5 3 -9 -1 -9 -8 -1 -55
-31 -213 -45 -234 -19 -29 -71 -54 -111 -54 l-27 0 6 128 c7 148 -7 126 -17
-27 -7 -114 -16 -130 -71 -131 -56 0 -58 6 -50 139 5 86 4 121 -4 121 -7 0
-11 -38 -11 -119 l0 -119 -32 -27 c-28 -24 -39 -27 -89 -23 -84 6 -90 14 -84
112 3 44 8 102 11 129 2 26 1 47 -5 47 -5 0 -12 -57 -16 -127 -5 -76 -12 -131
-19 -135 -17 -12 -72 -9 -101 4 -25 11 -25 11 -25 145 0 73 -4 133 -8 133 -5
0 -7 -58 -4 -130 l5 -130 -37 0 c-88 0 -119 46 -131 195 -4 49 -11 98 -16 110
-9 20 -4 -89 8 -167 5 -34 3 -38 -17 -38 -57 0 -116 66 -140 160 -27 106 -42
150 -49 150 -5 0 2 -39 16 -86 13 -47 22 -91 20 -97 -1 -5 -19 14 -39 44 -40
61 -141 259 -132 259 3 0 19 -9 35 -21z"/>
<path d="M11390 4721 c0 -17 5 -31 10 -31 6 0 10 11 10 24 0 14 -4 28 -10 31
-6 4 -10 -7 -10 -24z"/>
<path d="M11131 4650 c-1 -77 15 -193 30 -222 17 -32 18 -17 3 42 -8 30 -15
84 -15 120 -2 95 -16 145 -18 60z"/>
<path d="M11708 4640 c-7 -68 -22 -131 -43 -184 -6 -14 -5 -17 3 -12 23 14 53
140 50 207 l-3 64 -7 -75z"/>
<path d="M10920 4628 c0 -9 11 -59 25 -113 25 -101 60 -185 76 -185 12 0 11
17 -1 25 -17 10 -40 73 -65 179 -24 95 -35 126 -35 94z"/>
<path d="M11918 4634 c-5 -4 -8 -24 -8 -44 0 -76 -46 -192 -101 -255 -18 -20
-29 -38 -26 -41 9 -10 53 45 86 107 17 31 38 87 46 124 16 67 17 124 3 109z"/>
<path d="M10750 4496 c37 -99 133 -236 165 -236 8 0 -8 22 -35 49 -31 31 -62
78 -87 129 -21 45 -41 82 -45 82 -4 0 -3 -11 2 -24z"/>
<path d="M12095 4485 c-31 -78 -60 -135 -86 -167 -16 -21 -25 -38 -20 -38 26
0 128 186 118 213 -3 7 -8 3 -12 -8z"/>
<path d="M5533 4990 c-35 -21 -33 -16 -87 -240 -82 -340 -125 -594 -108 -626
6 -11 40 -37 76 -58 82 -48 136 -105 136 -145 0 -39 -29 -509 -40 -651 -8
-109 -7 -116 12 -137 28 -30 70 -38 105 -19 52 27 54 31 43 177 -27 372 -40
639 -31 661 12 31 64 77 133 117 79 44 82 50 74 129 -9 87 -66 372 -118 587
-34 142 -45 174 -69 197 -33 34 -79 37 -126 8z m62 -904 c108 0 139 4 182 21
68 27 59 13 -20 -33 -81 -47 -125 -90 -133 -130 -6 -31 19 -506 36 -694 6 -77
5 -87 -13 -107 -27 -30 -82 -31 -113 -2 -12 12 -21 26 -19 33 6 15 33 433 41
626 l7 156 -33 37 c-18 21 -64 56 -102 79 -87 51 -92 60 -20 34 47 -17 80 -20
187 -20z"/>
<path d="M4737 4920 c-14 -16 -30 -53 -36 -82 -14 -71 -40 -366 -48 -555 l-6
-151 31 -38 c31 -37 32 -42 32 -129 0 -49 -10 -206 -21 -348 -21 -240 -21
-261 -6 -292 26 -54 100 -60 132 -11 14 21 14 62 0 412 -8 214 -15 577 -15
807 0 404 -1 417 -19 417 -11 0 -31 -13 -44 -30z m51 -417 l-3 -438 -31 -3
c-26 -3 -37 3 -64 38 l-32 40 11 188 c17 282 40 507 56 546 15 36 40 66 56 66
6 0 8 -170 7 -437z"/>
<path d="M4924 4688 c-41 -32 -52 -46 -81 -107 -22 -47 -25 -62 -21 -135 5
-89 17 -120 81 -205 22 -30 44 -70 48 -90 15 -64 9 -321 -12 -511 -34 -313
-34 -307 -15 -335 14 -21 24 -25 66 -25 41 0 52 4 70 28 18 22 21 35 16 72
-31 227 -45 418 -46 590 l0 196 55 79 c82 118 101 198 70 302 -40 133 -152
202 -231 141z m114 -2 c70 -37 111 -118 112 -223 0 -84 -21 -142 -82 -221 -49
-63 -57 -98 -57 -268 -1 -119 30 -475 49 -566 10 -49 0 -95 -23 -110 -24 -15
-77 -8 -98 13 -18 18 -20 29 -16 68 37 300 47 426 47 588 0 100 -4 193 -9 206
-5 14 -28 49 -50 78 -23 30 -51 79 -62 109 -42 110 -4 259 81 316 40 27 69 30
108 10z"/>
<path d="M4535 4668 c-3 -7 -6 -85 -8 -173 l-3 -160 -2 168 c-2 141 -4 167
-17 167 -13 0 -15 -23 -15 -145 0 -90 -4 -145 -10 -145 -6 0 -10 55 -10 145 0
134 -7 172 -25 128 -3 -10 -9 -99 -12 -198 l-5 -180 32 -60 33 -60 -1 -185 c0
-175 -18 -397 -44 -558 -11 -67 -11 -74 9 -100 16 -22 29 -28 71 -30 45 -3 53
0 68 23 19 29 19 23 -16 350 -16 146 -21 242 -18 355 4 151 5 156 33 205 29
49 30 52 27 175 -3 170 -14 272 -29 278 -10 3 -13 -36 -15 -170 -1 -156 -2
-164 -9 -83 -4 50 -7 127 -8 172 -1 74 -14 114 -26 81z m-55 -353 c12 0 16 20
21 100 l5 100 2 -95 c3 -132 29 -167 43 -57 l6 52 2 -52 c1 -40 5 -53 16 -53
13 0 15 24 16 148 1 110 4 134 9 97 5 -27 9 -103 9 -168 1 -112 0 -120 -29
-174 l-30 -56 0 -181 c0 -160 10 -287 46 -592 6 -44 3 -55 -15 -73 -27 -27
-82 -28 -105 -2 -21 23 -22 52 -8 151 28 188 44 418 40 558 -4 136 -6 150 -30
192 -36 63 -41 104 -31 264 l8 141 5 -150 c4 -124 8 -150 20 -150z"/>
<path d="M6402 4296 c-96 -24 -172 -53 -172 -67 0 -13 55 -48 125 -80 176 -80
539 -149 905 -174 47 -3 104 -8 127 -11 l42 -5 3 58 c3 52 5 58 23 55 49 -8
86 -2 113 16 46 33 74 35 157 12 68 -19 97 -21 229 -18 135 3 156 6 193 27
l43 23 46 -22 c41 -20 50 -21 86 -11 22 7 52 24 65 38 21 20 25 31 20 64 -3
22 -17 58 -31 80 l-26 39 -928 -1 -927 0 -93 -23z m1048 -100 c0 -96 -2 -105
-20 -111 -18 -6 -20 -12 -14 -56 l7 -49 -34 0 c-117 0 -514 47 -679 81 -190
38 -379 102 -439 148 l-24 19 22 12 c13 6 64 22 114 35 90 24 100 24 580 25
l487 0 0 -104z m130 38 c0 -16 -16 -19 -25 -4 -8 13 4 32 16 25 5 -4 9 -13 9
-21z m366 15 c10 -17 -13 -36 -27 -22 -12 12 -4 33 11 33 5 0 12 -5 16 -11z
m344 -15 c0 -16 -16 -19 -25 -4 -8 13 4 32 16 25 5 -4 9 -13 9 -21z"/>
<path d="M5116 4164 c-3 -26 -6 -88 -6 -138 0 -77 3 -96 23 -126 20 -33 22
-46 21 -190 0 -85 -6 -210 -13 -278 -14 -139 -10 -152 44 -152 56 0 57 8 39
216 -21 240 -16 355 16 407 22 37 23 44 16 165 -7 126 -13 151 -36 137 -9 -6
-10 -37 -5 -121 5 -81 4 -114 -4 -114 -7 0 -11 39 -11 120 0 100 -2 120 -15
120 -12 0 -15 -20 -15 -120 0 -73 -4 -120 -10 -120 -6 0 -10 47 -10 120 0 95
-3 120 -14 120 -8 0 -16 -17 -20 -46z m94 -209 c12 0 16 21 20 110 l5 110 8
-108 c9 -106 8 -109 -19 -162 l-27 -55 6 -197 c4 -109 12 -229 18 -266 12 -76
4 -97 -36 -97 -39 0 -46 19 -35 101 6 41 13 162 16 269 l7 195 -27 49 c-28 53
-32 95 -18 221 7 70 7 70 12 -50 4 -98 8 -120 20 -120 12 0 16 23 20 125 l4
125 6 -125 c4 -102 8 -125 20 -125z"/>
<path d="M5338 3984 c-72 -38 -77 -160 -10 -236 22 -26 26 -140 9 -298 -15
-146 -11 -170 28 -170 36 0 44 25 33 105 -5 39 -10 131 -11 205 l-2 135 33 49
c37 57 42 108 16 162 -23 48 -60 67 -96 48z m51 -14 c27 -14 53 -87 45 -124
-3 -17 -20 -53 -37 -79 l-30 -49 7 -171 c5 -95 9 -190 9 -212 2 -34 -1 -40
-18 -40 -23 0 -22 -23 -10 252 l8 171 -30 49 c-39 60 -46 86 -39 128 7 33 46
85 66 85 6 0 19 -4 29 -10z"/>
<path d="M6410 3810 c-287 -5 -355 -9 -405 -24 -61 -18 -140 -54 -133 -61 18
-18 1066 -125 1618 -164 389 -28 403 -28 428 -3 17 17 29 20 74 15 46 -4 58
-1 87 21 41 31 81 33 148 9 69 -26 382 -26 409 -1 33 29 70 32 108 10 29 -17
41 -19 78 -11 89 21 114 88 63 176 l-26 43 -1052 -2 c-579 -1 -1207 -5 -1397
-8z m1540 -112 l-1 -103 -35 -23 c-35 -22 -38 -22 -202 -12 -466 29 -1520 128
-1766 167 -50 8 -34 17 87 48 l92 24 913 1 912 0 0 -102z m135 44 c0 -18 -20
-15 -23 4 -3 10 1 15 10 12 7 -3 13 -10 13 -16z m360 0 c0 -18 -20 -15 -23 4
-3 10 1 15 10 12 7 -3 13 -10 13 -16z m350 8 c11 -17 -5 -32 -21 -19 -7 6 -11
15 -8 20 7 12 21 11 29 -1z"/>
<path d="M314 3698 c-12 -5 -26 -20 -32 -33 -9 -20 -7 -26 13 -39 30 -20 82
-127 90 -186 9 -67 -26 -225 -100 -445 -66 -198 -85 -280 -85 -377 0 -137 60
-328 133 -424 25 -33 52 -66 59 -72 27 -22 192 -45 328 -45 145 -1 236 13 286
44 64 39 142 186 179 335 l17 69 61 29 c75 35 158 112 188 174 60 126 -14 513
-122 636 -48 54 -108 76 -206 76 -44 0 -63 4 -63 13 0 6 9 45 19 85 l19 74
-33 14 c-42 17 -285 49 -490 63 -82 6 -170 13 -195 15 -25 3 -55 0 -66 -6z
m326 -33 c207 -19 392 -44 404 -56 15 -14 -196 -11 -325 5 -64 8 -157 24 -207
36 -148 35 -124 38 128 15z m-85 -167 c62 -6 176 -8 299 -4 186 5 198 5 191
-12 -4 -9 -9 -48 -12 -87 -4 -61 3 -98 51 -285 30 -118 71 -267 91 -330 l36
-115 -21 -100 c-24 -116 -61 -231 -94 -295 -25 -49 -40 -57 -171 -87 -109 -26
-366 -22 -469 5 -121 33 -136 45 -173 137 -46 117 -67 231 -60 335 6 102 23
169 76 313 51 138 103 343 105 416 0 31 -3 74 -7 95 l-8 39 33 -7 c18 -4 78
-12 133 -18z m659 -202 c65 -27 108 -163 122 -386 8 -117 -1 -149 -52 -189
-47 -37 -57 -29 -91 72 -32 92 -119 420 -125 467 -6 45 76 65 146 36z"/>
<path d="M2130 3687 c-31 -16 -39 -61 -14 -88 9 -10 15 -21 13 -23 -2 -2 -49
-18 -105 -35 -55 -17 -116 -41 -135 -54 l-34 -23 -111 25 -112 24 -53 -30
c-84 -47 -84 -46 12 -175 47 -62 91 -122 97 -133 7 -13 8 -76 5 -185 -6 -172
5 -248 44 -325 23 -43 132 -154 173 -175 113 -57 446 -65 600 -15 64 21 121
77 185 179 51 83 59 91 111 112 133 54 260 157 302 245 64 134 44 301 -45 380
-67 58 -152 74 -292 53 l-93 -14 -94 45 c-51 24 -133 56 -181 71 -48 14 -90
28 -92 30 -2 2 4 13 13 23 25 27 17 72 -14 88 -14 7 -54 13 -90 13 -36 0 -76
-6 -90 -13z m-325 -228 c33 -7 64 -19 69 -27 27 -45 260 -71 481 -53 144 11
204 29 212 61 7 25 4 25 62 -5 49 -24 50 -24 126 -10 98 19 148 19 213 0 103
-31 162 -123 162 -250 0 -158 -99 -284 -300 -379 -91 -43 -91 -44 -149 -132
-95 -145 -133 -172 -273 -194 -115 -19 -365 -8 -446 18 -111 36 -213 154 -240
277 -21 94 -24 162 -12 273 14 130 19 114 -97 268 -45 61 -83 115 -83 120 0 5
23 23 51 41 50 31 51 31 107 17 31 -7 84 -19 117 -25z"/>
<path d="M2815 3344 c-95 -22 -106 -27 -100 -43 31 -76 39 -125 40 -246 0 -71
-4 -150 -8 -175 -7 -38 -6 -42 5 -29 7 9 31 22 53 29 161 50 260 167 260 307
0 66 -16 98 -67 136 -26 19 -137 32 -183 21z m158 -28 c50 -21 70 -50 75 -110
10 -117 -59 -223 -182 -282 -39 -19 -75 -34 -81 -34 -7 0 -11 46 -11 138 1
128 -9 191 -39 264 -5 13 2 18 37 26 65 15 164 14 201 -2z"/>
<path d="M10809 3356 c-215 -76 -353 -270 -384 -541 l-6 -60 -84 0 c-98 0
-138 -20 -143 -73 -4 -39 12 -48 109 -63 103 -16 114 -21 114 -55 0 -24 6 -31
38 -41 71 -24 198 -33 616 -44 312 -9 515 -9 830 0 419 11 547 20 618 44 32
10 38 17 38 41 0 34 11 39 114 55 40 6 82 16 92 22 26 14 24 55 -5 84 -28 28
-74 38 -149 33 l-55 -3 -12 79 c-36 246 -140 406 -326 498 l-87 43 -626 2
-626 3 -66 -24z m-16 -46 c5 -20 14 -20 692 -20 678 0 687 0 692 20 7 26 8 26
73 -12 149 -85 258 -278 277 -490 l6 -68 94 0 c86 0 96 -2 118 -25 46 -45 29
-62 -76 -80 -121 -21 -141 -31 -134 -65 6 -26 4 -28 -42 -39 -110 -25 -278
-33 -828 -38 -714 -7 -1120 9 -1219 47 -23 8 -25 13 -16 30 15 28 -17 45 -110
60 -127 21 -144 36 -95 85 22 23 32 25 114 25 103 0 94 -9 106 105 21 192 139
385 280 458 61 32 61 32 68 7z"/>
<path d="M11175 2744 c-318 -14 -561 -41 -634 -70 -36 -14 -42 -20 -39 -43 9
-75 132 -86 958 -86 772 1 947 12 996 67 52 57 -70 90 -426 118 -140 11 -715
20 -855 14z"/>
<path d="M3287 3332 c-15 -15 -27 -31 -27 -35 0 -4 24 -34 54 -66 l54 -59 6
-108 c21 -360 47 -408 217 -407 118 2 155 30 197 147 14 38 27 55 68 82 56 38
105 99 124 159 16 49 17 150 1 198 -23 69 -96 108 -165 89 -25 -7 -46 -6 -76
4 -29 10 -90 14 -218 14 -98 -1 -184 1 -193 5 -9 3 -26 -6 -42 -23z m102 2
c17 -4 28 -10 26 -15 -3 -4 7 -16 22 -26 23 -15 49 -18 158 -18 113 0 136 3
177 23 26 12 65 22 88 22 79 0 127 -84 117 -205 -7 -96 -57 -173 -147 -230
-28 -18 -42 -37 -58 -83 -39 -106 -76 -132 -189 -132 -84 0 -127 23 -151 78
-22 53 -42 210 -42 337 l0 84 -55 59 c-30 33 -55 63 -55 68 0 4 7 16 17 26 17
19 40 22 92 12z"/>
<path d="M3801 3251 c-11 -7 -11 -24 -1 -97 6 -48 8 -116 4 -151 -7 -72 -1
-77 52 -41 44 30 74 87 81 152 7 65 -1 100 -27 126 -21 21 -83 27 -109 11z
m89 -11 c32 -17 44 -77 30 -146 -10 -48 -20 -66 -54 -99 l-41 -40 -6 120 c-3
66 -9 130 -13 142 -5 16 -2 23 11 26 32 8 54 7 73 -3z"/>
<path d="M6106 3317 c-38 -40 -69 -128 -91 -255 -17 -98 -35 -296 -35 -388 l0
-62 188 -7 c197 -7 878 9 1091 25 147 12 342 37 373 49 21 7 22 13 19 118 l-2
111 31 35 c115 131 325 163 521 79 44 -19 47 -19 165 -1 223 34 393 78 487
126 42 21 48 28 45 51 -4 37 -67 67 -184 89 -94 18 -435 22 -1214 13 -308 -4
-551 3 -1100 31 -113 5 -218 12 -233 15 -23 5 -34 -1 -61 -29z m409 -7 c110
-5 344 -14 520 -20 176 -6 361 -13 410 -16 l90 -6 52 -196 c40 -158 51 -215
53 -288 l2 -92 -64 -11 c-207 -37 -689 -61 -1227 -61 l-363 0 6 68 c3 37 8
110 12 162 13 204 57 393 106 455 21 27 22 27 112 21 50 -4 181 -11 291 -16z
m1779 -96 c22 -21 20 -40 -6 -58 -27 -19 -58 -5 -58 27 0 43 35 60 64 31z
m320 3 c11 -8 17 -23 14 -38 -2 -19 -10 -25 -35 -27 -28 -3 -33 0 -39 24 -5
20 -2 31 11 41 23 16 27 16 49 0z"/>
<path d="M4809 2991 c-255 -82 -399 -334 -333 -586 8 -33 26 -80 40 -104 13
-24 24 -45 24 -47 0 -20 -124 56 -134 81 -3 9 -10 14 -15 10 -5 -3 -48 19 -94
49 l-85 55 -67 -86 -68 -86 72 -70 c39 -38 71 -76 71 -83 0 -8 8 -14 18 -14
10 0 37 -19 60 -43 40 -40 41 -44 32 -77 -22 -74 -40 -241 -40 -377 0 -141 0
-142 26 -162 34 -27 128 -56 235 -73 132 -21 678 -18 794 5 123 23 157 33 196
60 l34 23 -1 189 c-1 324 -44 454 -187 562 l-28 21 31 59 c144 276 9 601 -288
693 -82 26 -215 26 -293 1z m273 -107 c203 -64 315 -316 225 -505 -41 -86 -36
-84 -104 -55 -34 14 -93 34 -133 45 -70 20 -96 31 -72 31 6 0 18 13 27 30 40
78 -3 160 -85 160 -52 0 -76 -13 -95 -50 -22 -43 -19 -84 10 -119 l26 -30 -43
-11 c-24 -6 -78 -23 -121 -39 l-78 -29 -20 31 c-58 95 -64 241 -14 344 86 175
284 257 477 197z m-112 -384 c13 -25 -10 -53 -41 -48 -30 4 -39 46 -14 64 20
15 42 8 55 -16z m-672 -126 l72 -46 -45 -56 c-24 -32 -55 -70 -68 -86 l-24
-30 -39 31 c-21 17 -52 45 -68 61 l-28 30 57 71 c32 39 60 71 64 71 4 0 40
-21 79 -46z m494 -65 c64 -18 253 -15 311 6 l48 16 83 -40 c111 -54 216 -138
250 -200 50 -93 86 -308 86 -522 0 -98 -6 -108 -80 -134 -206 -74 -783 -84
-1044 -18 -33 8 -77 23 -97 34 -34 17 -38 23 -44 71 -3 29 -2 116 4 193 17
243 55 372 128 441 79 75 267 180 300 169 6 -2 31 -9 55 -16z m-331 -40 l49
-31 -59 -49 c-35 -29 -68 -68 -81 -94 l-22 -45 -26 19 c-67 48 -67 47 9 144
38 48 72 87 76 87 3 0 28 -14 54 -31z"/>
<path d="M8743 2468 c-59 -18 -63 -22 -73 -58 -7 -27 -50 -357 -50 -387 0 -1
-16 -7 -34 -13 -31 -10 -36 -16 -40 -53 -3 -23 -28 -411 -56 -862 -27 -451
-52 -841 -55 -868 -4 -34 -2 -48 7 -51 7 -2 219 -32 470 -66 l457 -62 153 118
c84 65 154 118 155 118 1 1 -5 105 -13 231 -20 328 -94 1554 -94 1559 0 2 -7
3 -16 2 -14 -1 -21 24 -40 155 -27 190 -39 224 -85 233 -49 10 -373 26 -509
25 -85 -1 -131 -6 -177 -21z m510 -39 c62 -9 81 -16 93 -34 16 -25 39 -135 49
-243 l7 -73 -63 6 c-150 12 -498 26 -522 20 -33 -9 -32 -23 -10 184 l17 164
175 -6 c97 -3 211 -11 254 -18z m315 -586 c24 -417 62 -1049 65 -1096 2 -27 1
-44 -2 -38 -5 7 -16 -1 -30 -20 -30 -40 -77 -59 -145 -59 -35 0 -60 -5 -69
-15 -18 -17 -23 134 -32 870 l-6 460 98 51 c54 28 101 52 104 53 3 0 11 -92
17 -206z m-496 113 c136 -7 251 -16 255 -20 5 -4 11 -269 15 -589 3 -320 9
-739 11 -931 l5 -349 -46 6 c-130 16 -856 117 -858 120 -2 2 21 394 51 873 30
478 55 879 55 892 l0 24 133 -7 c72 -4 243 -12 379 -19z m582 -1537 l7 -126
-136 -104 c-75 -57 -140 -105 -145 -107 -6 -2 -10 93 -10 252 l0 256 25 -16
c13 -9 51 -18 83 -21 70 -6 127 16 145 55 12 25 12 24 18 -19 3 -24 9 -101 13
-170z"/>
<path d="M9523 1603 c-27 -29 -38 -33 -81 -33 -60 0 -86 -21 -59 -48 12 -11
35 -16 78 -17 54 0 63 3 85 28 23 27 34 91 17 99 -5 2 -22 -11 -40 -29z"/>
<path d="M9563 1141 c-25 -33 -74 -51 -140 -51 -51 0 -64 -17 -33 -42 16 -13
39 -18 87 -18 58 0 67 3 94 29 29 29 33 46 20 89 l-6 24 -22 -31z"/>
<path d="M8662 1753 c-5 -10 -8 -43 -8 -73 l1 -55 35 0 35 0 8 58 c6 41 5 63
-4 73 -16 20 -57 18 -67 -3z m56 -21 c2 -7 -6 -12 -17 -12 -21 0 -27 11 -14
24 9 9 26 2 31 -12z m-10 -69 c-5 -25 -28 -28 -28 -4 0 12 6 21 16 21 9 0 14
-7 12 -17z"/>
<path d="M8781 1746 c-7 -9 -11 -38 -9 -73 l3 -58 35 0 35 0 8 58 c6 41 5 63
-4 73 -15 18 -53 18 -68 0z m57 -23 c2 -8 -5 -13 -17 -13 -12 0 -21 6 -21 16
0 18 31 15 38 -3z m-14 -61 c2 -4 1 -14 -4 -21 -10 -17 -31 -5 -23 14 6 16 19
20 27 7z"/>
<path d="M8901 1736 c-7 -9 -11 -38 -9 -73 3 -57 3 -58 35 -61 35 -3 34 -4 48
81 4 24 2 44 -6 53 -15 18 -53 18 -68 0z m53 -21 c3 -10 -1 -15 -14 -15 -20 0
-33 13 -23 24 11 11 31 6 37 -9z m-14 -75 c0 -11 -7 -20 -15 -20 -15 0 -21 21
-8 33 12 13 23 7 23 -13z"/>
<path d="M9021 1726 c-7 -9 -11 -38 -9 -73 3 -57 4 -58 34 -61 30 -3 31 -2 42
53 8 39 9 63 2 76 -12 22 -52 25 -69 5z m49 -21 c0 -8 -9 -15 -20 -15 -20 0
-26 11 -13 23 12 13 33 7 33 -8z m-10 -75 c0 -11 -7 -20 -15 -20 -8 0 -15 9
-15 20 0 11 7 20 15 20 8 0 15 -9 15 -20z"/>
<path d="M9134 1716 c-3 -7 -4 -40 -2 -72 3 -58 4 -59 32 -59 26 0 30 4 42 53
17 66 7 92 -37 92 -16 0 -32 -6 -35 -14z m54 -24 c2 -7 -6 -12 -17 -12 -21 0
-27 11 -14 24 9 9 26 2 31 -12z m-8 -72 c0 -11 -7 -20 -15 -20 -8 0 -15 9 -15
20 0 11 7 20 15 20 8 0 15 -9 15 -20z"/>
<path d="M8610 1595 c-7 -8 -13 -40 -15 -70 -2 -60 9 -79 47 -73 20 3 24 11
31 66 7 45 5 67 -3 77 -16 19 -44 19 -60 0z m50 -25 c0 -5 -9 -10 -20 -10 -11
0 -20 5 -20 10 0 6 9 10 20 10 11 0 20 -4 20 -10z m-12 -77 c-4 -22 -22 -20
-26 1 -2 10 3 16 13 16 10 0 15 -7 13 -17z"/>
<path d="M8732 1588 c-7 -7 -12 -39 -12 -75 0 -58 2 -63 24 -69 34 -8 42 -1
50 43 3 21 9 47 12 59 11 39 -45 71 -74 42z m46 -26 c2 -7 -6 -12 -17 -12 -21
0 -27 11 -14 24 9 9 26 2 31 -12z m-8 -78 c0 -8 -7 -14 -15 -14 -15 0 -21 21
-9 33 10 9 24 -2 24 -19z"/>
<path d="M8852 1578 c-7 -7 -12 -38 -12 -70 0 -53 2 -59 26 -70 22 -10 28 -10
39 5 19 26 28 116 14 133 -14 17 -51 18 -67 2z m52 -23 c4 -11 -1 -15 -19 -15
-18 0 -23 4 -19 15 4 8 12 15 19 15 7 0 15 -7 19 -15z m-14 -75 c0 -11 -7 -20
-15 -20 -17 0 -18 2 -9 24 9 23 24 20 24 -4z"/>
<path d="M8972 1563 c-5 -10 -8 -43 -8 -73 l1 -55 35 0 35 0 8 58 c6 41 5 63
-4 73 -16 20 -57 18 -67 -3z m56 -21 c2 -7 -6 -12 -17 -12 -21 0 -27 11 -14
24 9 9 26 2 31 -12z m-10 -69 c-5 -25 -28 -28 -28 -4 0 12 6 21 16 21 9 0 14
-7 12 -17z"/>
<path d="M9094 1556 c-3 -7 -4 -40 -2 -72 3 -58 4 -59 32 -59 27 0 31 4 43 53
17 66 6 92 -38 92 -16 0 -32 -6 -35 -14z m54 -24 c2 -7 -6 -12 -17 -12 -21 0
-27 11 -14 24 9 9 26 2 31 -12z m-8 -72 c0 -11 -7 -20 -15 -20 -8 0 -15 9 -15
20 0 11 7 20 15 20 8 0 15 -9 15 -20z"/>
<path d="M9226 1551 c-13 -14 -16 -33 -14 -77 3 -58 3 -59 35 -62 35 -3 34 -5
48 82 5 28 2 43 -11 57 -22 24 -36 24 -58 0z m49 -20 c3 -5 1 -12 -4 -15 -13
-8 -42 4 -35 15 7 12 31 12 39 0z m-15 -82 c0 -24 -23 -21 -28 4 -2 10 3 17
12 17 10 0 16 -9 16 -21z"/>
<path d="M8641 1396 c-7 -9 -11 -38 -9 -73 3 -57 3 -58 35 -61 35 -3 34 -4 48
81 4 24 2 44 -6 53 -15 18 -53 18 -68 0z m53 -21 c4 -11 -1 -15 -19 -15 -24 0
-32 10 -18 23 11 12 31 8 37 -8z m-14 -75 c0 -11 -7 -20 -15 -20 -8 0 -15 9
-15 20 0 11 7 20 15 20 8 0 15 -9 15 -20z"/>
<path d="M8761 1386 c-7 -9 -11 -38 -9 -73 3 -57 4 -58 34 -61 30 -3 31 -2 42
53 8 39 9 63 2 76 -12 22 -52 25 -69 5z m49 -21 c0 -8 -9 -15 -20 -15 -20 0
-26 11 -13 23 12 13 33 7 33 -8z m-10 -75 c0 -11 -7 -20 -15 -20 -8 0 -15 9
-15 20 0 11 7 20 15 20 8 0 15 -9 15 -20z"/>
<path d="M8872 1370 c-4 -11 -5 -44 -2 -73 5 -50 6 -52 34 -52 28 0 30 4 42
55 15 67 6 90 -37 90 -21 0 -32 -6 -37 -20z m56 -18 c2 -7 -6 -12 -17 -12 -21
0 -27 11 -14 24 9 9 26 2 31 -12z m-8 -72 c0 -11 -7 -20 -15 -20 -8 0 -15 9
-15 20 0 11 7 20 15 20 8 0 15 -9 15 -20z"/>
<path d="M8992 1363 c-7 -15 -8 -78 -3 -126 1 -5 16 -7 33 -5 32 3 33 5 41 62
5 32 6 65 3 72 -8 20 -63 18 -74 -3z m56 -21 c2 -7 -6 -12 -17 -12 -21 0 -27
11 -14 24 9 9 26 2 31 -12z m-8 -72 c0 -11 -7 -20 -15 -20 -8 0 -15 9 -15 20
0 11 7 20 15 20 8 0 15 -9 15 -20z"/>
<path d="M9112 1353 c-5 -10 -8 -43 -8 -73 l1 -55 35 0 35 0 8 58 c6 41 5 63
-4 73 -16 20 -57 18 -67 -3z m56 -20 c2 -8 -5 -13 -17 -13 -12 0 -21 6 -21 16
0 18 31 15 38 -3z m-10 -70 c-5 -25 -28 -28 -28 -4 0 12 6 21 16 21 9 0 14 -7
12 -17z"/>
<path d="M8568 1223 c-22 -26 -19 -122 5 -137 30 -19 51 5 61 68 6 41 5 60 -4
71 -17 20 -43 19 -62 -2z m52 -24 c0 -5 -9 -9 -20 -9 -19 0 -26 11 -14 23 8 8
34 -3 34 -14z m-10 -75 c0 -8 -7 -14 -15 -14 -8 0 -15 9 -15 20 0 13 5 18 15
14 8 -4 15 -12 15 -20z"/>
<path d="M8692 1218 c-7 -7 -12 -39 -12 -74 0 -52 3 -64 19 -69 31 -9 48 4 55
43 3 20 9 46 12 58 11 39 -45 71 -74 42z m46 -26 c2 -7 -6 -12 -17 -12 -21 0
-27 11 -14 24 9 9 26 2 31 -12z m-10 -75 c2 -10 -3 -17 -12 -17 -10 0 -16 9
-16 21 0 24 23 21 28 -4z"/>
<path d="M8811 1206 c-7 -8 -11 -38 -9 -72 3 -48 6 -58 25 -65 15 -5 27 -4 36
6 20 19 31 113 16 131 -15 18 -53 18 -68 0z m53 -21 c4 -11 -1 -15 -19 -15
-24 0 -32 10 -18 23 11 12 31 8 37 -8z m-14 -75 c0 -11 -7 -20 -15 -20 -15 0
-21 21 -8 33 12 13 23 7 23 -13z"/>
<path d="M8932 1193 c-5 -10 -8 -43 -8 -73 l1 -55 35 0 35 0 8 58 c6 41 5 63
-4 73 -16 20 -57 18 -67 -3z m56 -20 c2 -8 -5 -13 -17 -13 -12 0 -21 6 -21 16
0 18 31 15 38 -3z m-10 -70 c-5 -25 -28 -28 -28 -4 0 12 6 21 16 21 9 0 14 -7
12 -17z"/>
<path d="M9065 1196 c-15 -10 -18 -25 -16 -72 2 -66 8 -77 42 -72 18 2 25 11
30 38 3 19 9 45 13 57 5 16 1 28 -13 42 -25 25 -31 25 -56 7z m43 -34 c2 -7
-6 -12 -17 -12 -21 0 -27 11 -14 24 9 9 26 2 31 -12z m-8 -72 c0 -11 -7 -20
-15 -20 -8 0 -15 9 -15 20 0 11 7 20 15 20 8 0 15 -9 15 -20z"/>
<path d="M9186 1187 c-14 -10 -16 -25 -14 -77 3 -62 4 -65 30 -68 31 -4 42 12
52 77 5 34 3 48 -10 62 -20 22 -34 24 -58 6z m44 -31 c0 -9 -7 -12 -20 -9 -11
3 -17 9 -14 14 8 14 34 10 34 -5z m-10 -77 c0 -24 -23 -21 -28 4 -2 10 3 17
12 17 10 0 16 -9 16 -21z"/>
<path d="M8632 1038 c-7 -7 -12 -39 -12 -75 0 -58 2 -63 24 -69 36 -9 43 0 56
61 8 39 8 60 0 75 -12 22 -49 27 -68 8z m48 -23 c11 -13 8 -15 -15 -15 -23 0
-26 2 -15 15 7 8 14 15 15 15 1 0 8 -7 15 -15z m-10 -81 c0 -8 -7 -14 -15 -14
-15 0 -21 21 -9 33 10 9 24 -2 24 -19z"/>
<path d="M8752 1028 c-7 -7 -12 -39 -12 -75 0 -58 2 -63 24 -69 34 -8 42 -1
50 43 3 21 9 47 12 59 11 39 -45 71 -74 42z m46 -26 c2 -7 -6 -12 -17 -12 -21
0 -27 11 -14 24 9 9 26 2 31 -12z m-8 -72 c0 -11 -7 -20 -15 -20 -15 0 -21 21
-8 33 12 13 23 7 23 -13z"/>
<path d="M8867 1008 c-11 -19 -13 -62 -8 -120 1 -11 37 -19 55 -12 10 4 16 18
16 36 0 16 5 38 11 49 8 16 7 26 -6 45 -19 30 -50 31 -68 2z m51 -16 c2 -7 -6
-12 -17 -12 -21 0 -27 11 -14 24 9 9 26 2 31 -12z m-10 -75 c2 -10 -3 -17 -12
-17 -10 0 -16 9 -16 21 0 24 23 21 28 -4z"/>
<path d="M8991 1011 c-9 -6 -15 -31 -17 -71 -2 -56 0 -62 22 -72 34 -16 51 3
59 68 9 73 -18 104 -64 75z m47 -29 c2 -7 -6 -12 -17 -12 -21 0 -27 11 -14 24
9 9 26 2 31 -12z m-10 -75 c2 -10 -3 -17 -12 -17 -10 0 -16 9 -16 21 0 24 23
21 28 -4z"/>
<path d="M9102 993 c-5 -10 -10 -42 -11 -71 -1 -47 2 -54 24 -64 18 -8 28 -8
38 1 19 15 31 119 16 137 -16 20 -57 17 -67 -3z m56 -21 c2 -7 -6 -12 -17 -12
-21 0 -27 11 -14 24 9 9 26 2 31 -12z m-13 -72 c0 -7 -6 -15 -12 -17 -8 -3
-13 4 -13 17 0 13 5 20 13 18 6 -3 12 -11 12 -18z"/>
<path d="M8558 833 c-23 -26 -19 -122 5 -137 30 -19 51 5 61 69 8 51 7 60 -10
72 -24 17 -38 16 -56 -4z m47 -23 c3 -5 -3 -10 -14 -10 -12 0 -21 5 -21 10 0
6 6 10 14 10 8 0 18 -4 21 -10z m-5 -64 c0 -15 -14 -35 -21 -30 -15 9 -10 34
6 34 8 0 15 -2 15 -4z"/>
<path d="M8678 821 c-18 -25 -14 -121 4 -133 7 -4 22 -7 32 -6 28 4 49 109 29
138 -18 25 -48 26 -65 1z m50 -19 c2 -7 -6 -12 -17 -12 -21 0 -27 11 -14 24 9
9 26 2 31 -12z m-8 -77 c0 -8 -7 -15 -15 -15 -8 0 -15 7 -15 15 0 8 7 15 15
15 8 0 15 -7 15 -15z"/>
<path d="M8802 818 c-7 -7 -12 -39 -12 -75 0 -59 2 -63 26 -69 14 -4 30 -2 35
3 16 16 30 113 19 134 -12 21 -50 25 -68 7z m46 -26 c2 -7 -6 -12 -17 -12 -21
0 -27 11 -14 24 9 9 26 2 31 -12z m-8 -72 c0 -11 -7 -20 -15 -20 -15 0 -21 21
-8 33 12 13 23 7 23 -13z"/>
<path d="M8921 806 c-7 -9 -11 -38 -9 -73 l3 -58 35 0 35 0 8 58 c6 41 5 63
-4 73 -15 18 -53 18 -68 0z m57 -24 c2 -7 -6 -12 -17 -12 -21 0 -27 11 -14 24
9 9 26 2 31 -12z m-15 -58 c9 -10 -4 -34 -19 -34 -16 0 -16 2 -8 24 6 17 16
20 27 10z"/>
<path d="M9042 793 c-7 -15 -9 -90 -3 -126 0 -5 16 -7 33 -5 32 3 33 5 41 62
5 32 6 65 3 72 -8 20 -63 18 -74 -3z m56 -21 c2 -7 -6 -12 -17 -12 -21 0 -27
11 -14 24 9 9 26 2 31 -12z m-8 -72 c0 -11 -7 -20 -15 -20 -8 0 -15 9 -15 20
0 11 7 20 15 20 8 0 15 -9 15 -20z"/>
<path d="M9182 799 c-21 -8 -23 -14 -20 -76 3 -68 3 -68 32 -68 27 0 31 4 43
50 7 28 10 58 7 68 -8 24 -35 36 -62 26z m38 -34 c0 -8 -9 -15 -20 -15 -20 0
-26 11 -13 23 12 13 33 7 33 -8z m-10 -75 c0 -11 -7 -20 -15 -20 -8 0 -15 9
-15 20 0 11 7 20 15 20 8 0 15 -9 15 -20z"/>
<path d="M8616 637 c-14 -10 -16 -25 -14 -77 3 -65 3 -65 33 -65 28 0 31 3 44
58 12 53 12 59 -4 77 -21 23 -35 25 -59 7z m44 -31 c0 -9 -7 -12 -20 -9 -11 3
-17 9 -14 14 8 14 34 10 34 -5z m-10 -77 c0 -24 -23 -21 -28 4 -2 10 3 17 12
17 10 0 16 -9 16 -21z"/>
<path d="M8736 627 c-14 -10 -16 -25 -14 -77 3 -64 3 -65 32 -65 28 0 30 4 42
55 11 46 10 59 -2 78 -16 25 -32 28 -58 9z m44 -27 c0 -5 -9 -10 -20 -10 -11
0 -20 5 -20 10 0 6 9 10 20 10 11 0 20 -4 20 -10z m-12 -77 c-4 -22 -22 -20
-26 1 -2 10 3 16 13 16 10 0 15 -7 13 -17z"/>
<path d="M8850 615 c-17 -20 -19 -123 -3 -136 6 -6 22 -9 35 -7 19 2 24 11 30
50 3 26 9 51 12 56 8 14 -23 52 -43 52 -10 0 -24 -7 -31 -15z m50 -29 c0 -9
-7 -12 -20 -9 -11 3 -20 9 -20 14 0 5 9 9 20 9 11 0 20 -6 20 -14z m-12 -73
c-4 -22 -22 -20 -26 1 -2 10 3 16 13 16 10 0 15 -7 13 -17z"/>
<path d="M8968 603 c-17 -20 -21 -111 -5 -130 13 -17 54 -16 60 0 3 8 8 39 12
70 6 49 5 56 -13 66 -28 15 -36 14 -54 -6z m47 -23 c3 -5 -3 -10 -14 -10 -12
0 -21 5 -21 10 0 6 6 10 14 10 8 0 18 -4 21 -10z m-7 -77 c-4 -22 -22 -20 -26
1 -2 10 3 16 13 16 10 0 15 -7 13 -17z"/>
<path d="M9085 594 c-22 -23 -17 -122 8 -138 30 -19 51 5 60 70 7 50 6 60 -9
71 -24 17 -39 16 -59 -3z m45 -19 c11 -13 8 -15 -15 -15 -23 0 -26 2 -15 15 7
8 14 15 15 15 1 0 8 -7 15 -15z m-7 -84 c-3 -11 -11 -17 -18 -14 -17 6 -8 33
10 33 8 0 11 -8 8 -19z"/>
<path d="M8531 432 c-5 -10 -9 -42 -8 -72 l2 -55 35 0 35 0 8 58 c6 41 5 63
-4 73 -16 20 -56 18 -68 -4z m57 -20 c2 -7 -6 -12 -17 -12 -21 0 -27 11 -14
24 9 9 26 2 31 -12z m-15 -58 c8 -8 -3 -34 -14 -34 -5 0 -9 9 -9 20 0 19 11
26 23 14z"/>
<path d="M8652 423 c-7 -15 -8 -78 -3 -126 1 -5 16 -7 34 -5 31 3 32 5 41 60
4 32 6 65 2 73 -8 21 -63 20 -74 -2z m56 -21 c2 -7 -6 -12 -17 -12 -21 0 -27
11 -14 24 9 9 26 2 31 -12z m-8 -72 c0 -11 -7 -20 -15 -20 -8 0 -15 9 -15 20
0 11 7 20 15 20 8 0 15 -9 15 -20z"/>
<path d="M8786 427 c-14 -10 -16 -25 -14 -77 3 -63 4 -65 30 -68 30 -4 39 10
52 80 5 30 3 41 -14 58 -23 23 -30 24 -54 7z m44 -33 c0 -11 -5 -14 -16 -10
-9 3 -18 6 -20 6 -3 0 -2 5 1 10 10 16 35 12 35 -6z m-10 -74 c0 -11 -7 -20
-15 -20 -8 0 -15 9 -15 20 0 11 7 20 15 20 8 0 15 -9 15 -20z"/>
<path d="M8906 411 c-13 -14 -16 -33 -14 -77 3 -58 3 -59 35 -62 35 -3 37 0
48 79 9 69 -30 103 -69 60z m48 -20 c8 -13 -3 -19 -24 -14 -11 3 -17 9 -14 14
7 11 31 12 38 0z m-11 -81 c-6 -22 -18 -26 -28 -10 -8 13 3 30 20 30 8 0 11
-7 8 -20z"/>
<path d="M9028 403 c-19 -23 -21 -118 -2 -134 7 -6 23 -9 36 -7 20 3 24 11 31
66 7 45 5 67 -3 77 -17 20 -44 19 -62 -2z m52 -23 c0 -5 -9 -10 -20 -10 -11 0
-20 5 -20 10 0 6 9 10 20 10 11 0 20 -4 20 -10z m-12 -77 c-4 -22 -22 -20 -26
1 -2 10 3 16 13 16 10 0 15 -7 13 -17z"/>
<path d="M9152 398 c-7 -7 -12 -39 -12 -75 0 -59 2 -63 26 -69 32 -8 38 -1 52
65 11 47 10 56 -4 73 -20 21 -45 23 -62 6z m48 -29 c0 -5 -9 -9 -20 -9 -22 0
-27 16 -7 23 15 5 27 -1 27 -14z m-10 -74 c0 -8 -7 -15 -15 -15 -8 0 -15 7
-15 15 0 8 7 15 15 15 8 0 15 -7 15 -15z"/>
<path d="M3260 2460 c-104 -8 -173 -24 -207 -46 -22 -14 -23 -19 -23 -179 0
-254 40 -485 110 -642 30 -67 36 -74 79 -90 36 -14 74 -18 181 -17 209 1 230
14 285 178 21 60 35 86 46 86 26 0 132 57 176 94 58 50 85 114 86 201 0 81
-15 142 -43 178 -22 28 -96 57 -147 57 -31 0 -33 2 -33 34 0 70 -11 98 -46
112 -72 30 -303 47 -464 34z m-140 -117 c47 -15 90 -18 285 -18 206 0 236 3
287 21 l57 20 5 -20 c3 -12 6 -33 6 -47 0 -24 4 -27 55 -33 77 -9 121 -32 141
-75 23 -47 31 -186 14 -236 -24 -74 -128 -161 -221 -186 -46 -12 -46 -13 -69
-83 -33 -102 -65 -162 -92 -170 -91 -26 -337 -23 -389 5 -38 20 -103 204 -134
384 -9 50 -19 175 -22 279 -5 159 -4 188 8 183 8 -3 39 -14 69 -24z"/>
<path d="M3772 2191 c-8 -5 -17 -46 -23 -112 -5 -57 -14 -134 -19 -171 -14
-91 -15 -88 21 -78 49 14 116 57 138 89 51 71 46 204 -8 253 -32 28 -81 37
-109 19z m87 -16 c40 -20 54 -62 49 -145 -3 -50 -9 -77 -24 -97 -27 -36 -91
-80 -128 -89 -25 -6 -28 -4 -23 10 4 9 14 85 23 169 9 89 20 155 27 159 18 12
45 9 76 -7z"/>
<path d="M7775 2427 c-43 -41 -45 -46 -40 -88 10 -89 55 -1217 55 -1391 l0
-37 -91 -3 -90 -3 1 -363 c1 -398 -1 -390 62 -449 66 -62 185 -87 347 -72 52
5 98 6 102 3 5 -3 8 184 7 438 l-3 443 -73 3 -73 3 6 67 c4 37 8 362 8 722 2
726 6 686 -63 744 -50 42 -99 36 -155 -17z m151 0 c26 -23 38 -45 45 -77 10
-54 12 -891 2 -1213 l-6 -227 -82 0 -82 0 -7 313 c-6 299 -12 438 -37 935 -12
248 -14 240 56 283 43 27 70 23 111 -14z m-68 -1610 c7 -187 71 -411 182 -635
55 -111 64 -135 51 -141 -9 -3 -77 -6 -151 -6 -119 0 -141 3 -185 23 -27 13
-63 35 -79 50 -55 52 -56 61 -56 437 l0 345 118 0 117 0 3 -73z"/>
<path d="M7822 2393 c-12 -10 -24 -30 -28 -45 -5 -22 0 -34 25 -59 25 -25 37
-30 59 -25 60 15 80 79 37 121 -28 29 -65 32 -93 8z m86 -15 c20 -20 15 -76
-7 -88 -59 -31 -112 22 -81 81 12 22 68 27 88 7z"/>
<path d="M6355 2430 l-28 -29 -5 -303 c-2 -167 1 -422 7 -568 17 -381 -4 -527
-108 -762 -111 -250 -122 -484 -30 -629 48 -76 124 -119 207 -119 64 1 120 28
170 85 106 121 129 375 50 560 -61 144 -106 272 -116 335 -22 132 -23 227 -13
775 7 337 7 575 2 598 -20 84 -84 111 -136 57z m80 -80 c0 -18 -6 -26 -23 -28
-13 -2 -25 3 -28 12 -10 26 4 48 28 44 17 -2 23 -10 23 -28z"/>
<path d="M5885 2440 c-11 -4 -31 -20 -44 -34 l-25 -26 -4 -298 c-3 -163 1
-434 8 -602 17 -408 7 -501 -80 -775 -55 -174 -72 -282 -74 -465 -1 -173 9
-216 52 -227 19 -4 30 0 44 17 16 20 18 43 18 219 0 201 6 235 37 210 10 -9
13 -59 13 -220 0 -225 3 -239 55 -239 46 0 55 31 55 185 0 200 8 275 30 275
23 0 30 -60 30 -271 0 -170 4 -189 42 -189 33 0 48 43 59 165 13 137 1 286
-32 412 -11 43 -31 119 -44 168 -42 163 -50 265 -45 595 3 168 5 469 5 670 0
362 0 365 -22 396 -25 35 -49 45 -78 34z m40 -100 c0 -18 -6 -26 -23 -28 -13
-2 -25 3 -28 12 -10 26 4 48 28 44 17 -2 23 -10 23 -28z"/>
<path d="M10780 2361 c-302 -11 -379 -22 -366 -56 5 -14 -13 -18 -129 -30 -82
-8 -95 -13 -95 -35 0 -37 46 -55 139 -55 l86 0 20 -70 c36 -123 102 -198 232
-261 129 -63 142 -64 816 -64 676 0 686 1 824 66 122 58 203 155 232 279 l12
50 67 -3 c75 -4 139 13 156 41 17 27 -13 44 -92 51 -109 11 -131 17 -126 31 9
22 -29 34 -143 45 -137 13 -1334 21 -1633 11z m1532 -21 c193 -11 231 -17 224
-37 -8 -20 25 -31 128 -42 101 -12 118 -21 85 -45 -18 -12 -47 -16 -120 -16
l-96 0 -5 -45 c-13 -107 -96 -215 -215 -277 -141 -75 -124 -73 -828 -73 -696
0 -681 -1 -821 66 -108 51 -198 158 -219 259 -14 74 -8 70 -110 70 -77 0 -97
3 -116 19 l-24 19 25 10 c14 5 57 12 97 16 88 7 125 20 117 40 -8 20 31 27
195 36 201 10 1501 11 1683 0z"/>
<path d="M2107 2299 c-81 -19 -80 -18 -73 -136 4 -57 13 -127 21 -156 7 -29
13 -52 12 -52 -138 -36 -207 -78 -207 -127 0 -57 37 -89 140 -119 25 -7 63
-24 84 -38 39 -26 43 -26 225 -26 l186 0 43 28 c23 15 67 37 98 48 66 25 101
54 110 91 5 23 0 34 -27 61 -19 19 -40 36 -47 38 -10 3 -7 16 12 49 21 37 26
58 26 118 0 103 -30 153 -104 173 -23 6 -48 17 -57 25 -8 8 -39 18 -69 24 -64
12 -320 12 -373 -1z m396 -19 c97 -29 0 -55 -208 -54 -153 0 -245 13 -245 34
0 11 29 20 95 31 67 10 310 3 358 -11z m126 -126 c53 -67 1 -224 -68 -207 -40
9 -41 11 -25 55 8 22 17 72 20 109 6 63 9 69 30 69 12 0 32 -12 43 -26z m-528
-266 c19 -29 41 -63 50 -77 21 -34 88 -53 169 -48 74 5 130 29 130 56 0 26 18
37 73 44 26 4 65 16 86 26 l39 20 33 -22 c70 -48 65 -76 -22 -120 -79 -40
-187 -57 -360 -57 -165 0 -271 16 -356 55 -111 50 -86 114 60 156 34 10 62 18
63 18 1 1 16 -22 35 -51z m439 42 c-19 -13 -30 -13 -30 0 0 6 10 10 23 10 18
0 19 -2 7 -10z"/>
<path d="M6875 2113 c-129 -6 -259 -25 -283 -41 -22 -14 -23 -17 -7 -28 15
-11 15 -13 -2 -23 -17 -9 -17 -10 1 -24 19 -14 19 -14 0 -25 -19 -11 -19 -11
0 -25 18 -13 18 -14 0 -21 -18 -7 -17 -8 5 -25 l24 -19 -21 -6 c-12 -4 -22
-11 -22 -16 0 -5 10 -12 22 -16 l21 -6 -23 -18 -23 -18 22 -12 23 -12 -22 -15
-23 -16 23 -12 23 -12 -22 -12 -22 -12 23 -18 c25 -20 231 -50 368 -54 l75 -2
-3 -155 c-3 -172 -18 -796 -28 -1162 l-6 -236 26 -17 c39 -26 146 -32 201 -11
l45 18 0 146 c0 81 -4 298 -10 482 -5 184 -12 470 -16 636 l-6 301 128 7 c71
3 161 12 199 19 l70 12 0 210 0 209 -30 8 c-16 4 -108 13 -203 18 -153 10
-179 9 -223 -5 -45 -15 -53 -15 -96 -1 -44 15 -68 16 -208 9z m192 -50 c34
-81 29 -227 -13 -370 l-15 -53 -62 0 c-60 0 -208 15 -255 25 l-22 5 2 208 3
207 65 6 c36 3 114 6 173 7 l108 2 16 -37z m474 21 c12 -7 12 -411 0 -418 -4
-3 -70 -11 -145 -18 -150 -13 -161 -11 -185 38 -23 45 -21 250 3 343 l19 74
150 -7 c82 -4 154 -9 158 -12z"/>
<path d="M1392 2088 c-6 -8 -11 -124 -14 -284 l-4 -271 -62 -98 c-39 -63 -65
-117 -72 -150 -17 -80 -9 -1152 8 -1182 27 -47 87 -67 217 -71 105 -3 127 -1
178 18 97 36 91 6 99 535 6 490 0 677 -26 740 -9 21 -41 77 -71 124 l-54 86
-4 271 c-2 149 -7 276 -11 283 -10 16 -170 15 -184 -1z m178 -200 l0 -123 -87
3 -88 3 0 120 0 119 88 0 87 0 0 -122z m160 -1022 l0 -254 -37 -7 c-52 -10
-381 -7 -418 3 l-30 8 -3 245 c-1 134 -1 248 2 254 2 6 87 9 245 7 l241 -3 0
-253z"/>
<path d="M357 1920 c-21 -4 -43 -12 -48 -17 -7 -7 3 -48 30 -126 50 -145 75
-332 69 -518 -3 -115 -6 -130 -29 -165 -14 -22 -72 -123 -128 -225 -121 -222
-147 -304 -138 -434 3 -45 14 -104 26 -136 44 -116 174 -265 249 -287 15 -4
104 -7 197 -7 199 0 205 3 300 99 99 101 155 231 155 362 0 113 -32 202 -146
414 -59 107 -113 202 -120 211 -26 29 -37 128 -31 274 8 181 28 299 73 425 21
59 32 106 27 111 -24 24 -384 39 -486 19z m408 -19 c27 -6 24 -8 -25 -14 -119
-15 -407 -4 -378 14 15 10 359 10 403 0z m-190 -36 c66 0 150 3 187 7 l67 7
-34 -94 c-43 -117 -53 -178 -64 -375 -11 -181 -2 -286 27 -327 11 -15 63 -108
117 -206 91 -168 135 -268 135 -308 0 -17 -3 -17 -35 -3 -140 58 -660 58 -800
0 -41 -18 -42 -15 -19 65 14 48 81 178 197 384 22 39 46 82 54 98 24 45 28
232 9 397 -13 108 -27 173 -54 257 l-37 112 65 -7 c36 -4 119 -7 185 -7z"/>
<path d="M10395 1659 c-184 -8 -329 -29 -383 -56 -47 -23 -54 -54 -55 -268 -1
-200 24 -337 84 -457 11 -22 15 -39 9 -43 -5 -3 -52 -94 -105 -202 -100 -207
-109 -240 -81 -306 29 -70 144 -150 285 -199 166 -56 489 -76 692 -42 111 19
256 65 318 101 63 36 131 102 147 140 28 66 19 99 -80 305 -52 108 -99 199
-105 202 -6 4 1 30 20 69 54 115 72 228 71 432 -1 222 -5 244 -54 268 -67 33
-209 50 -513 61 -49 1 -162 0 -250 -5z m470 -19 c127 -11 267 -35 298 -51 79
-43 -132 -86 -468 -96 -359 -10 -719 31 -702 80 8 24 175 59 342 70 116 8 419
6 530 -3z m-785 -829 c0 -5 21 -32 46 -60 l46 -51 413 0 414 0 53 60 c29 33
55 60 59 60 14 0 199 -393 199 -422 0 -127 -191 -248 -475 -300 -94 -17 -409
-17 -500 0 -104 20 -232 60 -298 93 -104 53 -176 137 -177 209 -1 33 190 420
207 420 7 0 13 -4 13 -9z"/>
<path d="M10310 440 l0 -110 275 0 275 0 0 110 0 110 -275 0 -275 0 0 -110z"/>
<path d="M10315 279 c-15 -47 52 -79 168 -79 l67 0 0 50 0 50 -114 0 c-107 0
-115 -1 -121 -21z"/>
<path d="M10620 250 l0 -50 68 0 c115 0 182 32 167 79 -6 20 -14 21 -121 21
l-114 0 0 -50z"/>
<path d="M2623 1569 c-31 -9 -31 -9 -37 -92 -3 -45 -10 -197 -16 -338 -9 -217
-9 -263 4 -298 18 -54 60 -114 101 -145 l32 -25 7 -230 c9 -286 11 -279 -99
-305 -61 -15 -78 -23 -87 -42 -26 -57 52 -84 240 -84 146 1 215 20 220 62 4
35 -23 53 -104 68 -91 18 -92 22 -83 298 l8 224 49 52 c28 29 60 72 72 97 22
43 23 49 16 244 -3 110 -9 267 -13 349 l-6 148 -33 14 c-38 16 -219 18 -271 3z
m122 -61 c50 -1 109 2 133 6 l42 8 0 -59 c0 -32 5 -177 11 -322 8 -197 8 -274
0 -302 -7 -22 -38 -67 -75 -107 l-63 -69 -6 -229 c-6 -279 -6 -280 93 -305 36
-9 73 -20 83 -24 28 -12 20 -43 -15 -62 -47 -25 -325 -26 -380 -1 -68 31 -47
60 61 84 106 24 106 22 97 309 l-7 230 -43 45 c-57 60 -82 97 -95 145 -10 38
-9 90 15 562 l6 112 26 -10 c15 -6 68 -11 117 -11z"/>
<path d="M2012 1341 c-19 -5 -38 -13 -42 -17 -9 -10 -73 -207 -89 -276 -15
-66 -14 -125 5 -189 18 -58 54 -100 155 -176 l56 -42 6 -107 c9 -142 9 -346
-1 -361 -4 -6 -34 -16 -66 -22 -58 -11 -106 -33 -106 -50 0 -43 159 -71 300
-53 75 9 120 29 120 53 0 17 -49 40 -108 50 -56 10 -61 13 -68 42 -3 17 -3
123 1 236 l7 205 32 27 c17 15 56 47 86 71 30 24 66 64 80 89 22 39 25 55 24
144 0 90 -4 113 -43 227 -31 95 -48 131 -64 140 -26 14 -238 21 -285 9z m133
-66 c55 0 116 3 136 8 l35 7 40 -122 c32 -103 39 -137 39 -208 0 -116 -23
-162 -113 -229 -120 -89 -111 -64 -119 -323 -6 -221 -6 -225 15 -246 12 -12
34 -22 50 -22 52 0 102 -20 102 -40 0 -29 -61 -43 -190 -43 -129 0 -190 14
-190 43 0 19 49 40 95 40 49 1 64 11 72 54 5 22 6 131 2 240 l-8 199 -33 34
c-18 19 -56 50 -85 70 -113 78 -135 201 -74 408 44 147 43 145 89 137 20 -4
82 -7 137 -7z"/>
<path d="M11575 1310 c-171 -10 -252 -25 -268 -51 -20 -33 62 -308 143 -477
66 -138 127 -227 204 -300 104 -97 224 -129 441 -119 185 9 264 38 358 129
104 103 212 299 281 513 31 96 65 225 66 247 0 17 -62 38 -141 48 -109 14
-877 21 -1084 10z m-15 -155 c165 -22 617 -31 810 -16 157 12 301 34 362 55
48 17 48 17 8 -118 -94 -323 -246 -571 -397 -650 -133 -68 -430 -69 -581 -1
-104 47 -215 183 -304 371 -38 83 -119 317 -131 380 l-6 32 57 -18 c32 -10
114 -26 182 -35z"/>
<path d="M3107 1299 c-38 -4 -71 -10 -74 -13 -3 -2 46 -69 109 -148 63 -79
148 -188 189 -242 l74 -99 3 -286 c2 -180 0 -296 -7 -313 -13 -34 -56 -57
-133 -69 -72 -12 -99 -24 -92 -43 25 -66 482 -73 536 -9 17 21 -11 40 -71 48
-25 3 -66 14 -91 23 -70 27 -73 44 -67 375 l6 277 97 128 c54 70 132 169 173
220 96 118 105 131 98 138 -22 22 -592 32 -750 13z m347 -50 c152 0 300 4 329
7 l52 7 -25 -31 c-14 -17 -92 -118 -175 -223 -134 -174 -150 -198 -156 -243
-13 -91 -10 -548 4 -575 19 -38 57 -61 121 -71 109 -18 124 -34 50 -57 -51
-15 -351 -17 -410 -2 -77 20 -69 42 21 55 73 9 124 33 139 63 23 45 27 119 20
375 l-7 248 -100 132 c-55 72 -136 176 -180 230 l-80 99 60 -7 c33 -4 185 -7
337 -7z"/>
<path d="M4789 1284 c-10 -13 -11 -31 -1 -98 8 -53 12 -226 12 -483 l0 -402
-22 -3 c-15 -2 -23 -10 -24 -23 0 -11 -4 -28 -9 -39 -5 -12 -3 -21 6 -27 11
-7 11 -9 -3 -9 -12 0 -18 -8 -18 -25 0 -17 6 -25 18 -25 14 0 14 -2 3 -9 -9
-6 -11 -15 -6 -27 5 -11 9 -28 9 -39 1 -18 9 -20 80 -23 l78 -3 -6 26 c-4 14
-2 25 4 25 14 0 12 37 -2 43 -8 3 -6 6 5 6 11 1 17 9 17 26 0 17 -6 25 -17 25
-15 0 -16 2 -3 10 12 8 13 13 3 29 -6 10 -9 28 -6 40 4 17 1 21 -21 21 l-27 0
5 433 c2 237 7 456 11 485 5 36 3 57 -5 67 -16 20 -64 19 -81 -1z m61 -569 c0
-408 0 -415 -20 -415 -20 0 -20 7 -20 415 0 408 0 415 20 415 20 0 20 -7 20
-415z m13 -462 c-18 -2 -48 -2 -65 0 -18 2 -4 4 32 4 36 0 50 -2 33 -4z m0
-50 c-18 -2 -48 -2 -65 0 -18 2 -4 4 32 4 36 0 50 -2 33 -4z m0 -60 c-18 -2
-48 -2 -65 0 -18 2 -4 4 32 4 36 0 50 -2 33 -4z m0 -50 c-18 -2 -48 -2 -65 0
-18 2 -4 4 32 4 36 0 50 -2 33 -4z"/>
<path d="M5160 1191 c-132 -43 -141 -92 -47 -274 l63 -122 -38 -305 c-44 -361
-47 -404 -22 -431 15 -17 31 -19 150 -19 190 0 179 -36 126 404 l-42 352 59
115 c72 140 82 180 54 217 -37 50 -77 65 -182 68 -53 2 -107 0 -121 -5z m179
-12 c74 -13 121 -49 121 -93 0 -36 -34 -121 -77 -195 l-38 -63 -84 -1 -83 0
-44 79 c-62 113 -79 167 -64 205 15 35 55 58 119 69 67 11 78 11 150 -1z m21
-1024 l0 -35 -100 0 -100 0 0 35 0 35 100 0 100 0 0 -35z"/>
<path d="M5160 1153 c-43 -22 -51 -63 -21 -120 l19 -39 107 -1 107 -2 19 42
c43 96 16 128 -115 134 -64 3 -88 0 -116 -14z m203 -12 c34 -13 37 -30 18 -86
l-16 -49 -100 1 -100 1 -17 38 c-23 52 -22 70 4 88 25 18 170 22 211 7z"/>
<path d="M4190 1139 c-25 -6 -84 -8 -133 -5 -80 4 -89 3 -107 -17 -25 -26 -27
-93 -4 -125 15 -21 21 -22 170 -22 l154 0 0 -220 c0 -189 2 -220 15 -220 8 0
15 -6 15 -14 0 -8 -7 -16 -15 -20 -21 -8 -19 -53 3 -66 16 -10 16 -10 0 -20
-22 -13 -24 -58 -3 -66 8 -4 15 -12 15 -20 0 -8 -7 -14 -15 -14 -21 0 -19 -49
3 -66 16 -13 16 -15 0 -28 -22 -16 -23 -55 -3 -62 8 -4 15 -15 15 -26 0 -11 5
-18 13 -15 9 3 13 54 15 198 1 107 5 299 9 427 l5 232 147 0 c80 0 151 4 157
8 36 24 44 97 15 133 -18 22 -26 24 -123 24 -56 1 -148 4 -203 7 -59 4 -119 3
-145 -3z m138 -361 c2 -123 -1 -188 -8 -188 -5 0 -10 4 -10 10 0 5 -7 7 -15 4
-13 -5 -15 19 -15 181 l0 186 23 -3 c22 -3 22 -5 25 -190z m-28 -218 c0 -5 -4
-10 -10 -10 -5 0 -10 5 -10 10 0 6 5 10 10 10 6 0 10 -4 10 -10z m0 -95 c0 -8
-4 -15 -10 -15 -5 0 -10 7 -10 15 0 8 5 15 10 15 6 0 10 -7 10 -15z m0 -90 c0
-8 -4 -15 -10 -15 -5 0 -10 7 -10 15 0 8 5 15 10 15 6 0 10 -7 10 -15z m0
-101 c0 -8 -4 -12 -10 -9 -5 3 -10 10 -10 16 0 5 5 9 10 9 6 0 10 -7 10 -16z
m-4 -101 c-10 -10 -19 5 -10 18 6 11 8 11 12 0 2 -7 1 -15 -2 -18z"/>
</g>
</svg>
